<svg width="51" height="51" viewBox="0 0 51 51" fill="none" xmlns="http://www.w3.org/2000/svg">
<mask id="mask0" mask-type="alpha" maskUnits="userSpaceOnUse" x="0" y="0" width="51" height="51">
<path fill-rule="evenodd" clip-rule="evenodd" d="M0 0H50.5419V50.542H0V0Z" fill="white"/>
</mask>
<g mask="url(#mask0)">
<path fill-rule="evenodd" clip-rule="evenodd" d="M25.2713 -0.000305176C11.3144 -0.000305176 0 11.3141 0 25.271C0 39.2278 11.3144 50.5422 25.2713 50.5422C39.2281 50.5422 50.542 39.2278 50.542 25.271C50.542 11.3141 39.2281 -0.000305176 25.2713 -0.000305176Z" fill="#E63742"/>
</g>
<path fill-rule="evenodd" clip-rule="evenodd" d="M32.871 21.6302H17.129C15.9532 21.6302 15 20.7085 15 19.5715C15 18.4343 15.9532 17.5126 17.129 17.5126H32.871C34.0468 17.5126 35 18.4343 35 19.5715C35 20.7085 34.0468 21.6302 32.871 21.6302Z" fill="#F9F9F8"/>
<path fill-rule="evenodd" clip-rule="evenodd" d="M32.871 28.1008H17.129C15.9532 28.1008 15 27.1791 15 26.0421C15 24.9049 15.9532 23.9832 17.129 23.9832H32.871C34.0468 23.9832 35 24.9049 35 26.0421C35 27.1791 34.0468 28.1008 32.871 28.1008Z" fill="#F9F9F8"/>
<path fill-rule="evenodd" clip-rule="evenodd" d="M32.871 34.5714H17.129C15.9532 34.5714 15 33.6497 15 32.5128C15 31.3755 15.9532 30.4538 17.129 30.4538H32.871C34.0468 30.4538 35 31.3755 35 32.5128C35 33.6497 34.0468 34.5714 32.871 34.5714Z" fill="#F9F9F8"/>
</svg>
