<svg width="127" height="55" viewBox="0 0 127 55" fill="none" xmlns="http://www.w3.org/2000/svg">
<path fill-rule="evenodd" clip-rule="evenodd" d="M6.3629 44L5.86257 46.5134H4.54692L5.04725 44H2.7313L2.23061 46.5134H0.514614V48.875H1.75885L1.51564 50.1243H0V52.4858H1.04425L0.543184 55H2.85986L3.36019 52.4858H4.67548L4.17515 55H6.49146L6.99179 52.4858H8.62208V50.1243H7.46392L7.70676 48.875H9.13669V46.5134H8.17889L8.67922 44H6.3629ZM4.07517 48.875H5.39083L5.14762 50.1243H3.83197L4.07517 48.875Z" fill="#1D1D1B"/>
<path fill-rule="evenodd" clip-rule="evenodd" d="M18.0746 51.3871C18.4938 50.933 18.7034 50.2573 18.7034 49.3596C18.7034 48.442 18.4938 47.7543 18.0746 47.2957C17.6555 46.8368 17.0072 46.6077 16.1308 46.6077H14.4683V52.0673H16.1308C17.0072 52.0673 17.6555 51.8408 18.0746 51.3871ZM19.1732 44.8145C20.0067 45.239 20.6376 45.8416 21.0667 46.6223C21.4951 47.403 21.7099 48.3157 21.7099 49.3596C21.7099 50.4039 21.4951 51.314 21.0667 52.0894C20.6376 52.8653 20.0067 53.4633 19.1732 53.8826C18.3394 54.3022 17.3349 54.5122 16.1597 54.5122H11.5199V44.1774H16.1597C17.3349 44.1774 18.3394 44.39 19.1732 44.8145Z" fill="#1D1D1B"/>
<path fill-rule="evenodd" clip-rule="evenodd" d="M29.6304 50.3842L28.5174 47.0907L27.4044 50.3842H29.6304ZM30.4109 52.6824H26.6238L26.0025 54.5123H22.8368L26.8841 44.1776H30.2809L34.3134 54.5123H31.0325L30.4109 52.6824Z" fill="#1D1D1B"/>
<mask id="mask0" mask-type="alpha" maskUnits="userSpaceOnUse" x="34" y="44" width="8" height="11">
<path fill-rule="evenodd" clip-rule="evenodd" d="M34.8339 44.1775H41.9162V54.7465H34.8339V44.1775Z" fill="white"/>
</mask>
<g mask="url(#mask0)">
<path fill-rule="evenodd" clip-rule="evenodd" d="M36.3008 54.417C35.6695 54.1976 35.1808 53.9464 34.8339 53.6629L35.8599 51.6433C36.573 51.9849 37.1947 52.1555 37.7245 52.1555C38.187 52.1555 38.5098 52.0287 38.6927 51.7749C38.876 51.521 38.9675 51.1453 38.9675 50.6477V44.1775H41.9162V51.3358C41.9162 52.4386 41.5767 53.2827 40.8973 53.868C40.2179 54.4537 39.3 54.7466 38.1436 54.7466C37.546 54.7466 36.9318 54.6367 36.3008 54.417Z" fill="#1D1D1B"/>
</g>
<mask id="mask1" mask-type="alpha" maskUnits="userSpaceOnUse" x="0" y="0" width="127" height="55">
<path fill-rule="evenodd" clip-rule="evenodd" d="M0 54.7465H126.876V0.0524902H0V54.7465Z" fill="white"/>
</mask>
<g mask="url(#mask1)">
<path fill-rule="evenodd" clip-rule="evenodd" d="M46.3394 43.2261H49.2012V40.6935H46.3394V43.2261ZM52.4676 52.0673V54.5122H43.2314V52.4629L48.1893 46.6223H43.304V44.1774H52.2222V46.2563L47.2643 52.0673H52.4676Z" fill="#1D1D1B"/>
<path fill-rule="evenodd" clip-rule="evenodd" d="M63.1203 52.0675V54.5123H54.2311V44.1776H63.0337V46.6075H57.1798V48.0275H62.5857V50.5158H57.1798V52.0675H63.1203Z" fill="#1D1D1B"/>
<path fill-rule="evenodd" clip-rule="evenodd" d="M69.1042 50.5013L68.2226 51.438V54.5121H65.5052V44.1777H68.2226V47.8668L71.5324 44.1777H75.088L71.0122 48.496L75.1602 54.5121H71.7638L69.1042 50.5013Z" fill="#1D1D1B"/>
<path fill-rule="evenodd" clip-rule="evenodd" d="M83.3919 51.5113C83.8206 51.0234 84.035 50.3061 84.035 49.3596C84.035 48.3937 83.8206 47.664 83.3919 47.1713C82.9631 46.6786 82.3388 46.4318 81.5202 46.4318C80.7008 46.4318 80.0747 46.6808 79.6411 47.1784C79.2075 47.676 78.9906 48.4035 78.9906 49.3596C78.9906 50.3061 79.2075 51.0234 79.6411 51.5113C80.0747 51.9995 80.7008 52.2432 81.5202 52.2432C82.3388 52.2432 82.9631 51.9995 83.3919 51.5113ZM78.5425 54.0806C77.7139 53.6362 77.0804 53.0093 76.642 52.1993C76.2032 51.3894 75.9844 50.4426 75.9844 49.3596C75.9844 48.2763 76.2032 47.3276 76.642 46.5124C77.0804 45.6976 77.7139 45.0662 78.5425 44.6166C79.3712 44.1681 80.3638 43.9435 81.5202 43.9435C82.6765 43.9435 83.6688 44.1681 84.4975 44.6166C85.3261 45.0662 85.9574 45.6976 86.391 46.5124C86.8246 47.3276 87.0415 48.2763 87.0415 49.3596C87.0415 50.4426 86.8246 51.3894 86.391 52.1993C85.9574 53.0093 85.3261 53.6362 84.4975 54.0806C83.6688 54.5242 82.6765 54.7465 81.5202 54.7465C80.3638 54.7465 79.3712 54.5242 78.5425 54.0806Z" fill="#1D1D1B"/>
<path fill-rule="evenodd" clip-rule="evenodd" d="M102.507 44.1776V54.5123H99.5871V48.9792L97.4915 54.5123H94.2394L92.1434 48.9792V54.5123H89.2239V44.1776H93.1698L95.8727 51.16L98.5756 44.1776H102.507Z" fill="#1D1D1B"/>
<path fill-rule="evenodd" clip-rule="evenodd" d="M111.056 48.6641C111.263 48.4935 111.367 48.1935 111.367 47.7642C111.367 47.3349 111.259 47.0345 111.042 46.8639C110.825 46.6933 110.486 46.6078 110.023 46.6078H107.941V48.9206H110.052C110.514 48.9206 110.849 48.8351 111.056 48.6641ZM113.239 45.1C113.995 45.715 114.374 46.6029 114.374 47.7642C114.374 48.9255 113.993 49.8157 113.232 50.4355C112.47 51.0554 111.382 51.3651 109.965 51.3651H107.941V54.5123H104.993V44.1776H109.98C111.396 44.1776 112.482 44.485 113.239 45.1Z" fill="#1D1D1B"/>
<path fill-rule="evenodd" clip-rule="evenodd" d="M122.193 50.3842L121.08 47.0907L119.967 50.3842H122.193ZM122.974 52.6824H119.187L118.565 54.5123H115.4L119.447 44.1776H122.844L126.876 54.5123H123.595L122.974 52.6824Z" fill="#1D1D1B"/>
<path fill-rule="evenodd" clip-rule="evenodd" d="M62.7542 29.2529H62.7538C62.7257 29.2428 51.2927 25.0037 51.0242 16.7576C50.9154 13.4124 53.4983 10.5671 56.8029 10.5206C60.0816 10.4748 62.7538 13.1522 62.7538 16.4621C62.7538 13.2752 65.2312 10.6739 68.3422 10.5266C71.8234 10.3616 74.5726 13.1953 74.4852 16.7238C74.2641 25.6501 62.7834 29.2439 62.7542 29.2529ZM62.7542 0.0527344C52.5201 0.0527344 44.2236 8.45445 44.2236 18.8188C44.2236 29.1831 52.5201 37.5852 62.7542 37.5852C72.9882 37.5852 81.2843 29.1831 81.2843 18.8188C81.2843 8.45445 72.9882 0.0527344 62.7542 0.0527344Z" fill="#E63742"/>
<path fill-rule="evenodd" clip-rule="evenodd" d="M17.9993 29.1623H20.7992V26.9878H17.9993V29.1623Z" fill="#E63742"/>
<path fill-rule="evenodd" clip-rule="evenodd" d="M8.38501 24.6246C8.38501 25.4065 9.01297 26.0424 9.78534 26.0424H29.0138C29.7858 26.0424 30.4138 25.4065 30.4138 24.6246V23.2065H8.38501V24.6246Z" fill="#E63742"/>
<path fill-rule="evenodd" clip-rule="evenodd" d="M15.6092 30.5228C15.4589 30.6751 15.3471 30.8558 15.2786 31.0527H23.5199C23.3273 30.5022 22.8082 30.1074 22.1995 30.1074H16.5989C16.2253 30.1074 15.8739 30.2547 15.6092 30.5228Z" fill="#E63742"/>
<path fill-rule="evenodd" clip-rule="evenodd" d="M31.3472 24.6247C31.3472 25.9277 30.3005 26.9878 29.0138 26.9878H21.733V29.1623H22.1995C23.4865 29.1623 24.5333 30.2223 24.5333 31.525C24.5333 31.7864 24.3244 31.9978 24.0664 31.9978H14.7321C14.4747 31.9978 14.2655 31.7864 14.2655 31.525C14.2655 30.8943 14.5084 30.3011 14.949 29.8541C15.3904 29.4079 15.9761 29.1623 16.5989 29.1623H17.0658V26.9878H9.78535C8.49831 26.9878 7.45158 25.9277 7.45158 24.6247V10.1615C7.45158 8.85805 8.49831 7.79799 9.78535 7.79799H29.0138C30.3005 7.79799 31.3472 8.85805 31.3472 10.1615V24.6247ZM19.1848 0.0528564C8.95077 0.0528564 0.654297 8.45458 0.654297 18.8193C0.654297 29.1833 8.95077 37.585 19.1848 37.585C29.4189 37.585 37.7153 29.1833 37.7153 18.8193C37.7153 8.45458 29.4189 0.0528564 19.1848 0.0528564Z" fill="#E63742"/>
<path fill-rule="evenodd" clip-rule="evenodd" d="M108.853 25.6643C108.548 25.4783 108.152 25.5777 107.968 25.8863C107.787 26.19 107.221 26.517 106.407 26.517C105.594 26.517 105.028 26.19 104.847 25.8863C104.663 25.5777 104.267 25.4779 103.962 25.6643C103.657 25.8506 103.559 26.2519 103.743 26.5608C104.2 27.3277 105.246 27.823 106.407 27.823C107.569 27.823 108.615 27.3277 109.072 26.5608C109.256 26.2519 109.158 25.8506 108.853 25.6643Z" fill="#E63742"/>
<path fill-rule="evenodd" clip-rule="evenodd" d="M111.38 19.067C110.663 19.067 110.082 19.6554 110.082 20.3813C110.082 21.1073 110.663 21.696 111.38 21.696C112.097 21.696 112.678 21.1073 112.678 20.3813C112.678 19.6554 112.097 19.067 111.38 19.067Z" fill="#E63742"/>
<path fill-rule="evenodd" clip-rule="evenodd" d="M101.435 19.067C100.718 19.067 100.137 19.6554 100.137 20.3813C100.137 21.1073 100.718 21.696 101.435 21.696C102.152 21.696 102.733 21.1073 102.733 20.3813C102.733 19.6554 102.152 19.067 101.435 19.067Z" fill="#E63742"/>
<path fill-rule="evenodd" clip-rule="evenodd" d="M106.407 30.0134C100.337 30.0134 95.4158 25.0296 95.4158 18.8819C95.4158 18.6783 95.4217 18.4762 95.4321 18.2752C100.967 19.3634 106.486 17.6006 110.374 13.9183C111.66 16.9886 114.1 19.5029 117.231 20.8299C116.322 26.0488 111.822 30.0134 106.407 30.0134ZM106.323 7.51074C99.8582 7.51074 94.5979 12.838 94.5979 19.3859C94.5979 25.9337 99.8582 31.2606 106.323 31.2606C112.789 31.2606 118.049 25.9337 118.049 19.3859C118.049 12.838 112.789 7.51074 106.323 7.51074Z" fill="#E63742"/>
<path fill-rule="evenodd" clip-rule="evenodd" d="M106.324 32.3856C99.2456 32.3856 93.4873 26.554 93.4873 19.3859C93.4873 12.2179 99.2456 6.38589 106.324 6.38589C113.401 6.38589 119.16 12.2179 119.16 19.3859C119.16 26.554 113.401 32.3856 106.324 32.3856ZM106.506 0.0532893C96.272 -0.0483293 87.8948 8.27052 87.7941 18.6345C87.6934 28.9985 95.9081 37.4827 106.141 37.5843C116.375 37.6863 124.752 29.3671 124.853 19.0035C124.954 8.6395 116.739 0.155283 106.506 0.0532893Z" fill="#E63742"/>
</g>
</svg>
